<?xml version="1.0" encoding="UTF-8" standalone="no"?>
<!DOCTYPE svg PUBLIC "-//W3C//DTD SVG 1.1//EN"
 "http://www.w3.org/Graphics/SVG/1.1/DTD/svg11.dtd">
<!-- Generated by graphviz version 14.1.2 (20260124.0452)
 -->
<!-- Title: Modules Pages: 1 -->
<svg width="1980pt" height="1043pt"
 viewBox="0.00 0.00 1980.00 1043.00" xmlns="http://www.w3.org/2000/svg" xmlns:xlink="http://www.w3.org/1999/xlink">
<g id="graph0" class="graph" transform="scale(1 1) rotate(0) translate(4 1039)">
<title>Modules</title>
<polygon fill="white" stroke="none" points="-4,4 -4,-1039 1976.25,-1039 1976.25,4 -4,4"/>
<!-- CommunicationComplexity.Deterministic.FiniteMessage -->
<g id="node1" class="node">
<title>CommunicationComplexity.Deterministic.FiniteMessage</title>
<path fill="#fff9f0" stroke="#aa7a39" d="M906.88,-872C906.88,-872 617.12,-872 617.12,-872 611.12,-872 605.12,-866 605.12,-860 605.12,-860 605.12,-848 605.12,-848 605.12,-842 611.12,-836 617.12,-836 617.12,-836 906.88,-836 906.88,-836 912.88,-836 918.88,-842 918.88,-848 918.88,-848 918.88,-860 918.88,-860 918.88,-866 912.88,-872 906.88,-872"/>
<text xml:space="preserve" text-anchor="middle" x="762" y="-848.98" font-family="Helvetica,sans-Serif" font-size="12.00">CommunicationComplexity.Deterministic.FiniteMessage</text>
</g>
<!-- CommunicationComplexity.Deterministic.Protocol -->
<g id="node2" class="node">
<title>CommunicationComplexity.Deterministic.Protocol</title>
<path fill="#fff9f0" stroke="#aa7a39" d="M1263.75,-668C1263.75,-668 1008.5,-668 1008.5,-668 1002.5,-668 996.5,-662 996.5,-656 996.5,-656 996.5,-644 996.5,-644 996.5,-638 1002.5,-632 1008.5,-632 1008.5,-632 1263.75,-632 1263.75,-632 1269.75,-632 1275.75,-638 1275.75,-644 1275.75,-644 1275.75,-656 1275.75,-656 1275.75,-662 1269.75,-668 1263.75,-668"/>
<text xml:space="preserve" text-anchor="middle" x="1136.12" y="-644.98" font-family="Helvetica,sans-Serif" font-size="12.00">CommunicationComplexity.Deterministic.Protocol</text>
</g>
<!-- CommunicationComplexity.Deterministic.FiniteMessage&#45;&gt;CommunicationComplexity.Deterministic.Protocol -->
<g id="edge1" class="edge">
<title>CommunicationComplexity.Deterministic.FiniteMessage&#45;&gt;CommunicationComplexity.Deterministic.Protocol</title>
<path fill="none" stroke="#8a8a8a" d="M919.26,-842.98C939.9,-837.86 960.22,-830.76 978.5,-821 1043.52,-786.27 1095.66,-713.74 1120.07,-675.25"/>
<polygon fill="#8a8a8a" stroke="#8a8a8a" points="1121.87,-677 1123.51,-669.76 1117.72,-674.4 1121.87,-677"/>
<text xml:space="preserve" text-anchor="middle" x="973.25" y="-827.95" font-family="Helvetica,sans-Serif" font-size="10.00">11</text>
</g>
<!-- CommunicationComplexity.Rectangle.IsMonoPartition -->
<g id="node23" class="node">
<title>CommunicationComplexity.Rectangle.IsMonoPartition</title>
<path fill="#fff9f0" stroke="#aa7a39" d="M1608.25,-505C1608.25,-505 1329,-505 1329,-505 1323,-505 1317,-499 1317,-493 1317,-493 1317,-481 1317,-481 1317,-475 1323,-469 1329,-469 1329,-469 1608.25,-469 1608.25,-469 1614.25,-469 1620.25,-475 1620.25,-481 1620.25,-481 1620.25,-493 1620.25,-493 1620.25,-499 1614.25,-505 1608.25,-505"/>
<text xml:space="preserve" text-anchor="middle" x="1468.62" y="-481.98" font-family="Helvetica,sans-Serif" font-size="12.00">CommunicationComplexity.Rectangle.IsMonoPartition</text>
</g>
<!-- CommunicationComplexity.Deterministic.Protocol&#45;&gt;CommunicationComplexity.Rectangle.IsMonoPartition -->
<g id="edge2" class="edge">
<title>CommunicationComplexity.Deterministic.Protocol&#45;&gt;CommunicationComplexity.Rectangle.IsMonoPartition</title>
<path fill="none" stroke="#8a8a8a" d="M1174.4,-631.62C1235.6,-601.43 1357.14,-541.49 1422.89,-509.06"/>
<polygon fill="#8a8a8a" stroke="#8a8a8a" points="1423.69,-511.4 1428.88,-506.11 1421.52,-507.01 1423.69,-511.4"/>
<text xml:space="preserve" text-anchor="middle" x="1296.38" y="-572.69" font-family="Helvetica,sans-Serif" font-size="10.00">2</text>
</g>
<!-- CommunicationComplexity.Rectangle.IsMonochromatic -->
<g id="node24" class="node">
<title>CommunicationComplexity.Rectangle.IsMonochromatic</title>
<path fill="#fff9f0" stroke="#aa7a39" d="M1960.25,-566C1960.25,-566 1673.5,-566 1673.5,-566 1667.5,-566 1661.5,-560 1661.5,-554 1661.5,-554 1661.5,-542 1661.5,-542 1661.5,-536 1667.5,-530 1673.5,-530 1673.5,-530 1960.25,-530 1960.25,-530 1966.25,-530 1972.25,-536 1972.25,-542 1972.25,-542 1972.25,-554 1972.25,-554 1972.25,-560 1966.25,-566 1960.25,-566"/>
<text xml:space="preserve" text-anchor="middle" x="1816.88" y="-542.98" font-family="Helvetica,sans-Serif" font-size="12.00">CommunicationComplexity.Rectangle.IsMonochromatic</text>
</g>
<!-- CommunicationComplexity.Deterministic.Protocol&#45;&gt;CommunicationComplexity.Rectangle.IsMonochromatic -->
<g id="edge3" class="edge">
<title>CommunicationComplexity.Deterministic.Protocol&#45;&gt;CommunicationComplexity.Rectangle.IsMonochromatic</title>
<path fill="none" stroke="#8a8a8a" d="M1276.09,-652.65C1378.79,-651.8 1521.39,-644.68 1643.5,-617 1688.95,-606.7 1738.04,-586.03 1772.16,-569.98"/>
<polygon fill="#8a8a8a" stroke="#8a8a8a" points="1773,-572.3 1778.27,-567.08 1770.9,-567.87 1773,-572.3"/>
<text xml:space="preserve" text-anchor="middle" x="1468.62" y="-653.64" font-family="Helvetica,sans-Serif" font-size="10.00">1</text>
</g>
<!-- CommunicationComplexity.Rectangle.IsRectangle -->
<g id="node25" class="node">
<title>CommunicationComplexity.Rectangle.IsRectangle</title>
<path fill="#fff9f0" stroke="#aa7a39" d="M1946.75,-436C1946.75,-436 1687,-436 1687,-436 1681,-436 1675,-430 1675,-424 1675,-424 1675,-412 1675,-412 1675,-406 1681,-400 1687,-400 1687,-400 1946.75,-400 1946.75,-400 1952.75,-400 1958.75,-406 1958.75,-412 1958.75,-412 1958.75,-424 1958.75,-424 1958.75,-430 1952.75,-436 1946.75,-436"/>
<text xml:space="preserve" text-anchor="middle" x="1816.88" y="-412.98" font-family="Helvetica,sans-Serif" font-size="12.00">CommunicationComplexity.Rectangle.IsRectangle</text>
</g>
<!-- CommunicationComplexity.Deterministic.Protocol&#45;&gt;CommunicationComplexity.Rectangle.IsRectangle -->
<g id="edge4" class="edge">
<title>CommunicationComplexity.Deterministic.Protocol&#45;&gt;CommunicationComplexity.Rectangle.IsRectangle</title>
<path fill="none" stroke="#8a8a8a" d="M1215.02,-631.6C1246.65,-624.16 1283.56,-615.5 1317,-607.75 1462.02,-574.12 1506.78,-591.89 1643.5,-533 1643.62,-532.95 1731.09,-474.58 1781.37,-441.03"/>
<polygon fill="#8a8a8a" stroke="#8a8a8a" points="1782.48,-443.23 1786.94,-437.31 1779.76,-439.15 1782.48,-443.23"/>
<text xml:space="preserve" text-anchor="middle" x="1468.62" y="-609.5" font-family="Helvetica,sans-Serif" font-size="10.00">3</text>
</g>
<!-- CommunicationComplexity.Deterministic.Rank -->
<g id="node3" class="node">
<title>CommunicationComplexity.Deterministic.Rank</title>
<path fill="#fff9f0" stroke="#aa7a39" d="M386.12,-410C386.12,-410 146.62,-410 146.62,-410 140.62,-410 134.62,-404 134.62,-398 134.62,-398 134.62,-386 134.62,-386 134.62,-380 140.62,-374 146.62,-374 146.62,-374 386.12,-374 386.12,-374 392.12,-374 398.12,-380 398.12,-386 398.12,-386 398.12,-398 398.12,-398 398.12,-404 392.12,-410 386.12,-410"/>
<text xml:space="preserve" text-anchor="middle" x="266.38" y="-386.98" font-family="Helvetica,sans-Serif" font-size="12.00">CommunicationComplexity.Deterministic.Rank</text>
</g>
<!-- CommunicationComplexity.Deterministic.communicationComplexity -->
<g id="node4" class="node">
<title>CommunicationComplexity.Deterministic.communicationComplexity</title>
<path fill="#fff9f0" stroke="#aa7a39" d="M938,-665C938,-665 586,-665 586,-665 580,-665 574,-659 574,-653 574,-653 574,-641 574,-641 574,-635 580,-629 586,-629 586,-629 938,-629 938,-629 944,-629 950,-635 950,-641 950,-641 950,-653 950,-653 950,-659 944,-665 938,-665"/>
<text xml:space="preserve" text-anchor="middle" x="762" y="-641.98" font-family="Helvetica,sans-Serif" font-size="12.00">CommunicationComplexity.Deterministic.communicationComplexity</text>
</g>
<!-- CommunicationComplexity.Deterministic.Rank&#45;&gt;CommunicationComplexity.Deterministic.communicationComplexity -->
<g id="edge5" class="edge">
<title>CommunicationComplexity.Deterministic.Rank&#45;&gt;CommunicationComplexity.Deterministic.communicationComplexity</title>
<path fill="none" stroke="#8a8a8a" d="M398.62,-393.22C443.93,-398.76 493.2,-410.94 532.75,-436 544.62,-443.52 541.41,-451.5 550.75,-462 608.13,-526.46 687.02,-590.47 730.01,-623.67"/>
<polygon fill="#8a8a8a" stroke="#8a8a8a" points="728.34,-625.48 735.39,-627.8 731.33,-621.6 728.34,-625.48"/>
<text xml:space="preserve" text-anchor="middle" x="553.38" y="-469.33" font-family="Helvetica,sans-Serif" font-size="10.00">2</text>
</g>
<!-- CommunicationComplexity.Deterministic.Rank&#45;&gt;CommunicationComplexity.Rectangle.IsMonoPartition -->
<g id="edge6" class="edge">
<title>CommunicationComplexity.Deterministic.Rank&#45;&gt;CommunicationComplexity.Rectangle.IsMonoPartition</title>
<path fill="none" stroke="#8a8a8a" d="M398.46,-387.87C591.75,-383.95 964.02,-384.65 1275.75,-434 1320.05,-441.01 1368.74,-454.54 1405.99,-466.16"/>
<polygon fill="#8a8a8a" stroke="#8a8a8a" points="1404.9,-468.39 1412.31,-468.16 1406.37,-463.72 1404.9,-468.39"/>
<text xml:space="preserve" text-anchor="middle" x="973.25" y="-402.08" font-family="Helvetica,sans-Serif" font-size="10.00">1</text>
</g>
<!-- CommunicationComplexity.Deterministic.Rank&#45;&gt;CommunicationComplexity.Rectangle.IsRectangle -->
<g id="edge7" class="edge">
<title>CommunicationComplexity.Deterministic.Rank&#45;&gt;CommunicationComplexity.Rectangle.IsRectangle</title>
<path fill="none" stroke="#8a8a8a" d="M398.57,-379.28C520.43,-367.9 692.98,-353 761,-353 761,-353 761,-353 1469.62,-353 1567.39,-353 1678.05,-378.34 1747.4,-397.38"/>
<polygon fill="#8a8a8a" stroke="#8a8a8a" points="1746.37,-399.63 1753.77,-399.14 1747.68,-394.91 1746.37,-399.63"/>
<text xml:space="preserve" text-anchor="middle" x="1136.12" y="-354.75" font-family="Helvetica,sans-Serif" font-size="10.00">1</text>
</g>
<!-- CommunicationComplexity.Deterministic.communicationComplexity&#45;&gt;CommunicationComplexity.Deterministic.Protocol -->
<g id="edge8" class="edge">
<title>CommunicationComplexity.Deterministic.communicationComplexity&#45;&gt;CommunicationComplexity.Deterministic.Protocol</title>
<path fill="none" stroke="#8a8a8a" d="M950.43,-648.51C962.91,-648.61 975.39,-648.71 987.64,-648.81"/>
<polygon fill="#8a8a8a" stroke="#8a8a8a" points="987.54,-651.26 994.56,-648.87 987.58,-646.36 987.54,-651.26"/>
<text xml:space="preserve" text-anchor="middle" x="973.25" y="-650.43" font-family="Helvetica,sans-Serif" font-size="10.00">3</text>
</g>
<!-- CommunicationComplexity.Deterministic.communicationComplexity_le_clog_card -->
<g id="node5" class="node">
<title>CommunicationComplexity.Deterministic.communicationComplexity_le_clog_card</title>
<path fill="#fff9f0" stroke="#aa7a39" d="M480.25,-764C480.25,-764 52.5,-764 52.5,-764 46.5,-764 40.5,-758 40.5,-752 40.5,-752 40.5,-740 40.5,-740 40.5,-734 46.5,-728 52.5,-728 52.5,-728 480.25,-728 480.25,-728 486.25,-728 492.25,-734 492.25,-740 492.25,-740 492.25,-752 492.25,-752 492.25,-758 486.25,-764 480.25,-764"/>
<text xml:space="preserve" text-anchor="middle" x="266.38" y="-740.98" font-family="Helvetica,sans-Serif" font-size="12.00">CommunicationComplexity.Deterministic.communicationComplexity_le_clog_card</text>
</g>
<!-- CommunicationComplexity.Deterministic.communicationComplexity_le_clog_card&#45;&gt;CommunicationComplexity.Deterministic.communicationComplexity -->
<g id="edge9" class="edge">
<title>CommunicationComplexity.Deterministic.communicationComplexity_le_clog_card&#45;&gt;CommunicationComplexity.Deterministic.communicationComplexity</title>
<path fill="none" stroke="#8a8a8a" d="M484.8,-727.54C501.09,-725.04 517.22,-722.21 532.75,-719 536.92,-718.14 629.24,-688.89 695.17,-667.94"/>
<polygon fill="#8a8a8a" stroke="#8a8a8a" points="695.71,-670.34 701.63,-665.89 694.22,-665.67 695.71,-670.34"/>
<text xml:space="preserve" text-anchor="middle" x="553.38" y="-714.1" font-family="Helvetica,sans-Serif" font-size="10.00">1</text>
</g>
<!-- CommunicationComplexity.Deterministic.communicationComplexity_le_clog_card_X_alpha -->
<g id="node6" class="node">
<title>CommunicationComplexity.Deterministic.communicationComplexity_le_clog_card_X_alpha</title>
<path fill="#fff9f0" stroke="#aa7a39" d="M506.12,-710C506.12,-710 26.63,-710 26.63,-710 20.63,-710 14.62,-704 14.62,-698 14.62,-698 14.62,-686 14.62,-686 14.62,-680 20.62,-674 26.62,-674 26.62,-674 506.12,-674 506.12,-674 512.12,-674 518.12,-680 518.12,-686 518.12,-686 518.12,-698 518.12,-698 518.12,-704 512.12,-710 506.12,-710"/>
<text xml:space="preserve" text-anchor="middle" x="266.38" y="-686.98" font-family="Helvetica,sans-Serif" font-size="12.00">CommunicationComplexity.Deterministic.communicationComplexity_le_clog_card_X_alpha</text>
</g>
<!-- CommunicationComplexity.Deterministic.communicationComplexity_le_clog_card_X_alpha&#45;&gt;CommunicationComplexity.Deterministic.communicationComplexity -->
<g id="edge10" class="edge">
<title>CommunicationComplexity.Deterministic.communicationComplexity_le_clog_card_X_alpha&#45;&gt;CommunicationComplexity.Deterministic.communicationComplexity</title>
<path fill="none" stroke="#8a8a8a" d="M470.29,-673.5C501.66,-670.64 534,-667.69 565.21,-664.85"/>
<polygon fill="#8a8a8a" stroke="#8a8a8a" points="565.29,-667.3 572.04,-664.23 564.84,-662.42 565.29,-667.3"/>
<text xml:space="preserve" text-anchor="middle" x="553.38" y="-667.89" font-family="Helvetica,sans-Serif" font-size="10.00">1</text>
</g>
<!-- CommunicationComplexity.Deterministic.communicationComplexity_le_clog_card_Y_alpha -->
<g id="node7" class="node">
<title>CommunicationComplexity.Deterministic.communicationComplexity_le_clog_card_Y_alpha</title>
<path fill="#fff9f0" stroke="#aa7a39" d="M506.12,-656C506.12,-656 26.63,-656 26.63,-656 20.63,-656 14.62,-650 14.62,-644 14.62,-644 14.62,-632 14.62,-632 14.62,-626 20.62,-620 26.62,-620 26.62,-620 506.12,-620 506.12,-620 512.12,-620 518.12,-626 518.12,-632 518.12,-632 518.12,-644 518.12,-644 518.12,-650 512.12,-656 506.12,-656"/>
<text xml:space="preserve" text-anchor="middle" x="266.38" y="-632.98" font-family="Helvetica,sans-Serif" font-size="12.00">CommunicationComplexity.Deterministic.communicationComplexity_le_clog_card_Y_alpha</text>
</g>
<!-- CommunicationComplexity.Deterministic.communicationComplexity_le_clog_card_Y_alpha&#45;&gt;CommunicationComplexity.Deterministic.communicationComplexity -->
<g id="edge11" class="edge">
<title>CommunicationComplexity.Deterministic.communicationComplexity_le_clog_card_Y_alpha&#45;&gt;CommunicationComplexity.Deterministic.communicationComplexity</title>
<path fill="none" stroke="#8a8a8a" d="M518.53,-642.58C534.2,-642.86 549.85,-643.15 565.23,-643.43"/>
<polygon fill="#8a8a8a" stroke="#8a8a8a" points="565.18,-645.88 572.22,-643.56 565.27,-640.98 565.18,-645.88"/>
<text xml:space="preserve" text-anchor="middle" x="553.38" y="-644.92" font-family="Helvetica,sans-Serif" font-size="10.00">1</text>
</g>
<!-- CommunicationComplexity.Deterministic.communicationComplexity_le_iff -->
<g id="node8" class="node">
<title>CommunicationComplexity.Deterministic.communicationComplexity_le_iff</title>
<path fill="#fff9f0" stroke="#aa7a39" d="M458.5,-818C458.5,-818 74.25,-818 74.25,-818 68.25,-818 62.25,-812 62.25,-806 62.25,-806 62.25,-794 62.25,-794 62.25,-788 68.25,-782 74.25,-782 74.25,-782 458.5,-782 458.5,-782 464.5,-782 470.5,-788 470.5,-794 470.5,-794 470.5,-806 470.5,-806 470.5,-812 464.5,-818 458.5,-818"/>
<text xml:space="preserve" text-anchor="middle" x="266.38" y="-794.98" font-family="Helvetica,sans-Serif" font-size="12.00">CommunicationComplexity.Deterministic.communicationComplexity_le_iff</text>
</g>
<!-- CommunicationComplexity.Deterministic.communicationComplexity_le_iff&#45;&gt;CommunicationComplexity.Deterministic.Protocol -->
<g id="edge12" class="edge">
<title>CommunicationComplexity.Deterministic.communicationComplexity_le_iff&#45;&gt;CommunicationComplexity.Deterministic.Protocol</title>
<path fill="none" stroke="#8a8a8a" d="M470.84,-800.62C499.51,-799.09 528.55,-796.68 556,-793 746.07,-767.54 964.18,-704.09 1070.32,-670.93"/>
<polygon fill="#8a8a8a" stroke="#8a8a8a" points="1070.99,-673.29 1076.94,-668.86 1069.53,-668.61 1070.99,-673.29"/>
<text xml:space="preserve" text-anchor="middle" x="762" y="-790.99" font-family="Helvetica,sans-Serif" font-size="10.00">3</text>
</g>
<!-- CommunicationComplexity.Deterministic.communicationComplexity_le_iff&#45;&gt;CommunicationComplexity.Deterministic.communicationComplexity -->
<g id="edge13" class="edge">
<title>CommunicationComplexity.Deterministic.communicationComplexity_le_iff&#45;&gt;CommunicationComplexity.Deterministic.communicationComplexity</title>
<path fill="none" stroke="#8a8a8a" d="M470.88,-797.44C492.63,-791.93 513.73,-784.05 532.75,-773 544.67,-766.08 540.2,-756.62 550.75,-747.75 593.71,-711.63 651.82,-685.07 696.06,-668.33"/>
<polygon fill="#8a8a8a" stroke="#8a8a8a" points="696.76,-670.68 702.46,-665.94 695.04,-666.09 696.76,-670.68"/>
<text xml:space="preserve" text-anchor="middle" x="553.38" y="-749.5" font-family="Helvetica,sans-Serif" font-size="10.00">1</text>
</g>
<!-- CommunicationComplexity.Deterministic.communicationComplexity_le_iff_finiteMessage -->
<g id="node9" class="node">
<title>CommunicationComplexity.Deterministic.communicationComplexity_le_iff_finiteMessage</title>
<path fill="#fff9f0" stroke="#aa7a39" d="M499,-872C499,-872 33.75,-872 33.75,-872 27.75,-872 21.75,-866 21.75,-860 21.75,-860 21.75,-848 21.75,-848 21.75,-842 27.75,-836 33.75,-836 33.75,-836 499,-836 499,-836 505,-836 511,-842 511,-848 511,-848 511,-860 511,-860 511,-866 505,-872 499,-872"/>
<text xml:space="preserve" text-anchor="middle" x="266.38" y="-848.98" font-family="Helvetica,sans-Serif" font-size="12.00">CommunicationComplexity.Deterministic.communicationComplexity_le_iff_finiteMessage</text>
</g>
<!-- CommunicationComplexity.Deterministic.communicationComplexity_le_iff_finiteMessage&#45;&gt;CommunicationComplexity.Deterministic.FiniteMessage -->
<g id="edge14" class="edge">
<title>CommunicationComplexity.Deterministic.communicationComplexity_le_iff_finiteMessage&#45;&gt;CommunicationComplexity.Deterministic.FiniteMessage</title>
<path fill="none" stroke="#8a8a8a" d="M511.45,-851.64C526.53,-851.64 541.47,-851.67 556,-851.75 569.12,-851.82 582.7,-851.92 596.36,-852.03"/>
<polygon fill="#8a8a8a" stroke="#8a8a8a" points="596.33,-854.48 603.35,-852.1 596.37,-849.58 596.33,-854.48"/>
<text xml:space="preserve" text-anchor="middle" x="553.38" y="-853.5" font-family="Helvetica,sans-Serif" font-size="10.00">3</text>
</g>
<!-- CommunicationComplexity.Deterministic.communicationComplexity_le_iff_finiteMessage&#45;&gt;CommunicationComplexity.Deterministic.communicationComplexity -->
<g id="edge15" class="edge">
<title>CommunicationComplexity.Deterministic.communicationComplexity_le_iff_finiteMessage&#45;&gt;CommunicationComplexity.Deterministic.communicationComplexity</title>
<path fill="none" stroke="#8a8a8a" d="M511.17,-836.13C518.55,-833.39 525.76,-830.36 532.75,-827 556.33,-815.67 554.25,-802.16 574,-785 624.48,-741.17 687.95,-696.27 726.45,-670.04"/>
<polygon fill="#8a8a8a" stroke="#8a8a8a" points="727.67,-672.17 732.08,-666.22 724.92,-668.12 727.67,-672.17"/>
<text xml:space="preserve" text-anchor="middle" x="553.38" y="-814.81" font-family="Helvetica,sans-Serif" font-size="10.00">1</text>
</g>
<!-- CommunicationComplexity.Deterministic.communicationComplexity_lower_bound -->
<g id="node10" class="node">
<title>CommunicationComplexity.Deterministic.communicationComplexity_lower_bound</title>
<path fill="#fff9f0" stroke="#aa7a39" d="M480.62,-548C480.62,-548 52.13,-548 52.13,-548 46.13,-548 40.12,-542 40.12,-536 40.12,-536 40.12,-524 40.12,-524 40.12,-518 46.12,-512 52.12,-512 52.12,-512 480.62,-512 480.62,-512 486.62,-512 492.62,-518 492.62,-524 492.62,-524 492.62,-536 492.62,-536 492.62,-542 486.62,-548 480.62,-548"/>
<text xml:space="preserve" text-anchor="middle" x="266.38" y="-524.98" font-family="Helvetica,sans-Serif" font-size="12.00">CommunicationComplexity.Deterministic.communicationComplexity_lower_bound</text>
</g>
<!-- CommunicationComplexity.Deterministic.communicationComplexity_lower_bound&#45;&gt;CommunicationComplexity.Deterministic.communicationComplexity -->
<g id="edge16" class="edge">
<title>CommunicationComplexity.Deterministic.communicationComplexity_lower_bound&#45;&gt;CommunicationComplexity.Deterministic.communicationComplexity</title>
<path fill="none" stroke="#8a8a8a" d="M492.17,-548.49C505.97,-550.98 519.59,-553.8 532.75,-557 598.68,-573.03 670.93,-603.95 716.11,-625.03"/>
<polygon fill="#8a8a8a" stroke="#8a8a8a" points="714.93,-627.18 722.31,-627.94 717.01,-622.75 714.93,-627.18"/>
<text xml:space="preserve" text-anchor="middle" x="553.38" y="-563.78" font-family="Helvetica,sans-Serif" font-size="10.00">1</text>
</g>
<!-- CommunicationComplexity.Deterministic.communicationComplexity_lower_bound&#45;&gt;CommunicationComplexity.Rectangle.IsMonoPartition -->
<g id="edge17" class="edge">
<title>CommunicationComplexity.Deterministic.communicationComplexity_lower_bound&#45;&gt;CommunicationComplexity.Rectangle.IsMonoPartition</title>
<path fill="none" stroke="#8a8a8a" d="M493.09,-527.5C514.36,-527.07 535.59,-526.58 556,-526 819.95,-518.53 1126.67,-504.25 1308.55,-495.2"/>
<polygon fill="#8a8a8a" stroke="#8a8a8a" points="1308.47,-497.66 1315.34,-494.86 1308.23,-492.76 1308.47,-497.66"/>
<text xml:space="preserve" text-anchor="middle" x="973.25" y="-512.67" font-family="Helvetica,sans-Serif" font-size="10.00">1</text>
</g>
<!-- CommunicationComplexity.Deterministic.le_communicationComplexity_iff -->
<g id="node11" class="node">
<title>CommunicationComplexity.Deterministic.le_communicationComplexity_iff</title>
<path fill="#fff9f0" stroke="#aa7a39" d="M458.5,-927C458.5,-927 74.25,-927 74.25,-927 68.25,-927 62.25,-921 62.25,-915 62.25,-915 62.25,-903 62.25,-903 62.25,-897 68.25,-891 74.25,-891 74.25,-891 458.5,-891 458.5,-891 464.5,-891 470.5,-897 470.5,-903 470.5,-903 470.5,-915 470.5,-915 470.5,-921 464.5,-927 458.5,-927"/>
<text xml:space="preserve" text-anchor="middle" x="266.38" y="-903.98" font-family="Helvetica,sans-Serif" font-size="12.00">CommunicationComplexity.Deterministic.le_communicationComplexity_iff</text>
</g>
<!-- CommunicationComplexity.Deterministic.le_communicationComplexity_iff&#45;&gt;CommunicationComplexity.Deterministic.Protocol -->
<g id="edge18" class="edge">
<title>CommunicationComplexity.Deterministic.le_communicationComplexity_iff&#45;&gt;CommunicationComplexity.Deterministic.Protocol</title>
<path fill="none" stroke="#8a8a8a" d="M470.64,-918.93C641.01,-923.95 869.02,-921.94 950,-881 1039.25,-835.88 1099.78,-725.89 1123.68,-675.71"/>
<polygon fill="#8a8a8a" stroke="#8a8a8a" points="1125.81,-676.94 1126.56,-669.56 1121.38,-674.86 1125.81,-676.94"/>
<text xml:space="preserve" text-anchor="middle" x="762" y="-922.64" font-family="Helvetica,sans-Serif" font-size="10.00">3</text>
</g>
<!-- CommunicationComplexity.Deterministic.le_communicationComplexity_iff&#45;&gt;CommunicationComplexity.Deterministic.communicationComplexity -->
<g id="edge19" class="edge">
<title>CommunicationComplexity.Deterministic.le_communicationComplexity_iff&#45;&gt;CommunicationComplexity.Deterministic.communicationComplexity</title>
<path fill="none" stroke="#8a8a8a" d="M470.91,-899.28C492.2,-894.81 513.19,-888.86 532.75,-881 544.88,-876.13 548.95,-874.01 556,-863 575.18,-833.04 554.48,-814.74 574,-785 608.75,-732.07 671.16,-692.18 714.26,-669.23"/>
<polygon fill="#8a8a8a" stroke="#8a8a8a" points="715.14,-671.54 720.2,-666.12 712.86,-667.2 715.14,-671.54"/>
<text xml:space="preserve" text-anchor="middle" x="553.38" y="-871.74" font-family="Helvetica,sans-Serif" font-size="10.00">1</text>
</g>
<!-- CommunicationComplexity.Deterministic.mono_partition_of_communicationComplexity_le -->
<g id="node12" class="node">
<title>CommunicationComplexity.Deterministic.mono_partition_of_communicationComplexity_le</title>
<path fill="#fff9f0" stroke="#aa7a39" d="M502,-481C502,-481 30.75,-481 30.75,-481 24.75,-481 18.75,-475 18.75,-469 18.75,-469 18.75,-457 18.75,-457 18.75,-451 24.75,-445 30.75,-445 30.75,-445 502,-445 502,-445 508,-445 514,-451 514,-457 514,-457 514,-469 514,-469 514,-475 508,-481 502,-481"/>
<text xml:space="preserve" text-anchor="middle" x="266.38" y="-457.98" font-family="Helvetica,sans-Serif" font-size="12.00">CommunicationComplexity.Deterministic.mono_partition_of_communicationComplexity_le</text>
</g>
<!-- CommunicationComplexity.Deterministic.mono_partition_of_communicationComplexity_le&#45;&gt;CommunicationComplexity.Deterministic.communicationComplexity -->
<g id="edge20" class="edge">
<title>CommunicationComplexity.Deterministic.mono_partition_of_communicationComplexity_le&#45;&gt;CommunicationComplexity.Deterministic.communicationComplexity</title>
<path fill="none" stroke="#8a8a8a" d="M455.43,-481.43C481.84,-486.87 508.3,-493.9 532.75,-503 611.16,-532.18 691.23,-590.71 732.5,-623.45"/>
<polygon fill="#8a8a8a" stroke="#8a8a8a" points="730.85,-625.26 737.84,-627.72 733.91,-621.44 730.85,-625.26"/>
<text xml:space="preserve" text-anchor="middle" x="553.38" y="-512.9" font-family="Helvetica,sans-Serif" font-size="10.00">1</text>
</g>
<!-- CommunicationComplexity.Deterministic.mono_partition_of_communicationComplexity_le&#45;&gt;CommunicationComplexity.Rectangle.IsMonoPartition -->
<g id="edge21" class="edge">
<title>CommunicationComplexity.Deterministic.mono_partition_of_communicationComplexity_le&#45;&gt;CommunicationComplexity.Rectangle.IsMonoPartition</title>
<path fill="none" stroke="#8a8a8a" d="M403.32,-444.51C449.97,-439 502.55,-433.71 550.75,-431 823.02,-415.68 1140.64,-445.81 1321.55,-467.51"/>
<polygon fill="#8a8a8a" stroke="#8a8a8a" points="1321.05,-469.92 1328.29,-468.32 1321.63,-465.05 1321.05,-469.92"/>
<text xml:space="preserve" text-anchor="middle" x="973.25" y="-437.46" font-family="Helvetica,sans-Serif" font-size="10.00">1</text>
</g>
<!-- CommunicationComplexity.Examples.Equality -->
<g id="node13" class="node">
<title>CommunicationComplexity.Examples.Equality</title>
<path fill="#fff9f0" stroke="#aa7a39" d="M385.38,-602C385.38,-602 147.38,-602 147.38,-602 141.38,-602 135.38,-596 135.38,-590 135.38,-590 135.38,-578 135.38,-578 135.38,-572 141.38,-566 147.38,-566 147.38,-566 385.38,-566 385.38,-566 391.38,-566 397.38,-572 397.38,-578 397.38,-578 397.38,-590 397.38,-590 397.38,-596 391.38,-602 385.38,-602"/>
<text xml:space="preserve" text-anchor="middle" x="266.38" y="-578.98" font-family="Helvetica,sans-Serif" font-size="12.00">CommunicationComplexity.Examples.Equality</text>
</g>
<!-- CommunicationComplexity.Examples.Equality&#45;&gt;CommunicationComplexity.Deterministic.communicationComplexity -->
<g id="edge22" class="edge">
<title>CommunicationComplexity.Examples.Equality&#45;&gt;CommunicationComplexity.Deterministic.communicationComplexity</title>
<path fill="none" stroke="#8a8a8a" d="M397.79,-595.83C440.82,-600.11 488.89,-605.31 532.75,-611 568.9,-615.69 608.15,-621.58 643.74,-627.24"/>
<polygon fill="#8a8a8a" stroke="#8a8a8a" points="642.96,-629.59 650.26,-628.28 643.73,-624.76 642.96,-629.59"/>
<text xml:space="preserve" text-anchor="middle" x="553.38" y="-615.22" font-family="Helvetica,sans-Serif" font-size="10.00">4</text>
</g>
<!-- CommunicationComplexity.PrivateCoin.FiniteMessage -->
<g id="node14" class="node">
<title>CommunicationComplexity.PrivateCoin.FiniteMessage</title>
<path fill="#fff9f0" stroke="#aa7a39" d="M903.5,-58C903.5,-58 620.5,-58 620.5,-58 614.5,-58 608.5,-52 608.5,-46 608.5,-46 608.5,-34 608.5,-34 608.5,-28 614.5,-22 620.5,-22 620.5,-22 903.5,-22 903.5,-22 909.5,-22 915.5,-28 915.5,-34 915.5,-34 915.5,-46 915.5,-46 915.5,-52 909.5,-58 903.5,-58"/>
<text xml:space="preserve" text-anchor="middle" x="762" y="-34.98" font-family="Helvetica,sans-Serif" font-size="12.00">CommunicationComplexity.PrivateCoin.FiniteMessage</text>
</g>
<!-- CommunicationComplexity.PrivateCoin.Protocol -->
<g id="node15" class="node">
<title>CommunicationComplexity.PrivateCoin.Protocol</title>
<path fill="#fff9f0" stroke="#aa7a39" d="M1260.38,-205C1260.38,-205 1011.88,-205 1011.88,-205 1005.88,-205 999.88,-199 999.88,-193 999.88,-193 999.88,-181 999.88,-181 999.88,-175 1005.88,-169 1011.88,-169 1011.88,-169 1260.38,-169 1260.38,-169 1266.38,-169 1272.38,-175 1272.38,-181 1272.38,-181 1272.38,-193 1272.38,-193 1272.38,-199 1266.38,-205 1260.38,-205"/>
<text xml:space="preserve" text-anchor="middle" x="1136.12" y="-181.97" font-family="Helvetica,sans-Serif" font-size="12.00">CommunicationComplexity.PrivateCoin.Protocol</text>
</g>
<!-- CommunicationComplexity.PrivateCoin.FiniteMessage&#45;&gt;CommunicationComplexity.PrivateCoin.Protocol -->
<g id="edge23" class="edge">
<title>CommunicationComplexity.PrivateCoin.FiniteMessage&#45;&gt;CommunicationComplexity.PrivateCoin.Protocol</title>
<path fill="none" stroke="#8a8a8a" d="M829.96,-58.46C872.99,-71.03 929.75,-88.93 978.5,-108.75 1019.04,-125.23 1063.51,-147.92 1094.68,-164.62"/>
<polygon fill="#8a8a8a" stroke="#8a8a8a" points="1093.25,-166.64 1100.57,-167.8 1095.57,-162.32 1093.25,-166.64"/>
<text xml:space="preserve" text-anchor="middle" x="973.25" y="-110.5" font-family="Helvetica,sans-Serif" font-size="10.00">11</text>
</g>
<!-- CommunicationComplexity.PrivateCoin.communicationComplexity -->
<g id="node16" class="node">
<title>CommunicationComplexity.PrivateCoin.communicationComplexity</title>
<path fill="#fff9f0" stroke="#aa7a39" d="M934.62,-205C934.62,-205 589.38,-205 589.38,-205 583.38,-205 577.38,-199 577.38,-193 577.38,-193 577.38,-181 577.38,-181 577.38,-175 583.38,-169 589.38,-169 589.38,-169 934.62,-169 934.62,-169 940.62,-169 946.62,-175 946.62,-181 946.62,-181 946.62,-193 946.62,-193 946.62,-199 940.62,-205 934.62,-205"/>
<text xml:space="preserve" text-anchor="middle" x="762" y="-181.97" font-family="Helvetica,sans-Serif" font-size="12.00">CommunicationComplexity.PrivateCoin.communicationComplexity</text>
</g>
<!-- CommunicationComplexity.PrivateCoin.communicationComplexity&#45;&gt;CommunicationComplexity.PrivateCoin.Protocol -->
<g id="edge24" class="edge">
<title>CommunicationComplexity.PrivateCoin.communicationComplexity&#45;&gt;CommunicationComplexity.PrivateCoin.Protocol</title>
<path fill="none" stroke="#8a8a8a" d="M946.88,-187C961.73,-187 976.6,-187 991.1,-187"/>
<polygon fill="#8a8a8a" stroke="#8a8a8a" points="991.09,-189.45 998.09,-187 991.09,-184.55 991.09,-189.45"/>
<text xml:space="preserve" text-anchor="middle" x="973.25" y="-188.75" font-family="Helvetica,sans-Serif" font-size="10.00">3</text>
</g>
<!-- CommunicationComplexity.PrivateCoin.communicationComplexity_le_deterministic -->
<g id="node17" class="node">
<title>CommunicationComplexity.PrivateCoin.communicationComplexity_le_deterministic</title>
<path fill="#fff9f0" stroke="#aa7a39" d="M484.38,-355C484.38,-355 48.37,-355 48.37,-355 42.38,-355 36.38,-349 36.38,-343 36.38,-343 36.38,-331 36.38,-331 36.38,-325 42.38,-319 48.38,-319 48.38,-319 484.38,-319 484.38,-319 490.38,-319 496.38,-325 496.38,-331 496.38,-331 496.38,-343 496.38,-343 496.38,-349 490.38,-355 484.38,-355"/>
<text xml:space="preserve" text-anchor="middle" x="266.38" y="-331.98" font-family="Helvetica,sans-Serif" font-size="12.00">CommunicationComplexity.PrivateCoin.communicationComplexity_le_deterministic</text>
</g>
<!-- CommunicationComplexity.PrivateCoin.communicationComplexity_le_deterministic&#45;&gt;CommunicationComplexity.Deterministic.communicationComplexity -->
<g id="edge25" class="edge">
<title>CommunicationComplexity.PrivateCoin.communicationComplexity_le_deterministic&#45;&gt;CommunicationComplexity.Deterministic.communicationComplexity</title>
<path fill="none" stroke="#8a8a8a" d="M496.8,-349.33C509.27,-353.63 521.35,-358.81 532.75,-365 643.49,-425.17 720.56,-563.55 748.94,-621.13"/>
<polygon fill="#8a8a8a" stroke="#8a8a8a" points="746.69,-622.12 751.96,-627.34 751.1,-619.98 746.69,-622.12"/>
<text xml:space="preserve" text-anchor="middle" x="553.38" y="-379.22" font-family="Helvetica,sans-Serif" font-size="10.00">1</text>
</g>
<!-- CommunicationComplexity.PrivateCoin.communicationComplexity_le_deterministic&#45;&gt;CommunicationComplexity.PrivateCoin.communicationComplexity -->
<g id="edge26" class="edge">
<title>CommunicationComplexity.PrivateCoin.communicationComplexity_le_deterministic&#45;&gt;CommunicationComplexity.PrivateCoin.communicationComplexity</title>
<path fill="none" stroke="#8a8a8a" d="M496.64,-326.47C509.37,-321.24 521.53,-314.82 532.75,-307 549.49,-295.34 557.79,-237.39 574,-225 582.31,-218.65 591.41,-213.29 600.98,-208.77"/>
<polygon fill="#8a8a8a" stroke="#8a8a8a" points="601.97,-211.01 607.37,-205.93 599.98,-206.53 601.97,-211.01"/>
<text xml:space="preserve" text-anchor="middle" x="553.38" y="-274.3" font-family="Helvetica,sans-Serif" font-size="10.00">1</text>
</g>
<!-- CommunicationComplexity.PrivateCoin.communicationComplexity_le_iff -->
<g id="node18" class="node">
<title>CommunicationComplexity.PrivateCoin.communicationComplexity_le_iff</title>
<path fill="#fff9f0" stroke="#aa7a39" d="M455.12,-183C455.12,-183 77.62,-183 77.62,-183 71.62,-183 65.62,-177 65.62,-171 65.62,-171 65.62,-159 65.62,-159 65.62,-153 71.62,-147 77.62,-147 77.62,-147 455.12,-147 455.12,-147 461.12,-147 467.12,-153 467.12,-159 467.12,-159 467.12,-171 467.12,-171 467.12,-177 461.12,-183 455.12,-183"/>
<text xml:space="preserve" text-anchor="middle" x="266.38" y="-159.97" font-family="Helvetica,sans-Serif" font-size="12.00">CommunicationComplexity.PrivateCoin.communicationComplexity_le_iff</text>
</g>
<!-- CommunicationComplexity.PrivateCoin.communicationComplexity_le_iff&#45;&gt;CommunicationComplexity.PrivateCoin.Protocol -->
<g id="edge27" class="edge">
<title>CommunicationComplexity.PrivateCoin.communicationComplexity_le_iff&#45;&gt;CommunicationComplexity.PrivateCoin.Protocol</title>
<path fill="none" stroke="#8a8a8a" d="M467.27,-147.07C603.62,-138.07 788.14,-132.2 950,-148.75 984.76,-152.3 1022.63,-159.52 1055.01,-166.73"/>
<polygon fill="#8a8a8a" stroke="#8a8a8a" points="1054.28,-169.08 1061.65,-168.23 1055.36,-164.3 1054.28,-169.08"/>
<text xml:space="preserve" text-anchor="middle" x="762" y="-150.5" font-family="Helvetica,sans-Serif" font-size="10.00">3</text>
</g>
<!-- CommunicationComplexity.PrivateCoin.communicationComplexity_le_iff&#45;&gt;CommunicationComplexity.PrivateCoin.communicationComplexity -->
<g id="edge28" class="edge">
<title>CommunicationComplexity.PrivateCoin.communicationComplexity_le_iff&#45;&gt;CommunicationComplexity.PrivateCoin.communicationComplexity</title>
<path fill="none" stroke="#8a8a8a" d="M467.35,-164.72C497.08,-165.32 527.35,-166.27 556,-167.75 560.19,-167.97 564.42,-168.2 568.69,-168.46"/>
<polygon fill="#8a8a8a" stroke="#8a8a8a" points="568.29,-170.89 575.42,-168.88 568.59,-166 568.29,-170.89"/>
<text xml:space="preserve" text-anchor="middle" x="553.38" y="-169.5" font-family="Helvetica,sans-Serif" font-size="10.00">1</text>
</g>
<!-- CommunicationComplexity.PrivateCoin.communicationComplexity_le_iff_finiteMessage -->
<g id="node19" class="node">
<title>CommunicationComplexity.PrivateCoin.communicationComplexity_le_iff_finiteMessage</title>
<path fill="#fff9f0" stroke="#aa7a39" d="M495.62,-114C495.62,-114 37.13,-114 37.13,-114 31.13,-114 25.12,-108 25.12,-102 25.12,-102 25.12,-90 25.12,-90 25.12,-84 31.12,-78 37.12,-78 37.12,-78 495.62,-78 495.62,-78 501.62,-78 507.62,-84 507.62,-90 507.62,-90 507.62,-102 507.62,-102 507.62,-108 501.62,-114 495.62,-114"/>
<text xml:space="preserve" text-anchor="middle" x="266.38" y="-90.97" font-family="Helvetica,sans-Serif" font-size="12.00">CommunicationComplexity.PrivateCoin.communicationComplexity_le_iff_finiteMessage</text>
</g>
<!-- CommunicationComplexity.PrivateCoin.communicationComplexity_le_iff_finiteMessage&#45;&gt;CommunicationComplexity.PrivateCoin.FiniteMessage -->
<g id="edge29" class="edge">
<title>CommunicationComplexity.PrivateCoin.communicationComplexity_le_iff_finiteMessage&#45;&gt;CommunicationComplexity.PrivateCoin.FiniteMessage</title>
<path fill="none" stroke="#8a8a8a" d="M369.02,-77.5C418.52,-68.23 478.85,-56.54 532.75,-45 540.79,-43.28 542.59,-41.72 550.75,-40.75 566.64,-38.87 583.25,-37.61 599.87,-36.82"/>
<polygon fill="#8a8a8a" stroke="#8a8a8a" points="599.62,-39.28 606.51,-36.53 599.41,-34.39 599.62,-39.28"/>
<text xml:space="preserve" text-anchor="middle" x="553.38" y="-42.5" font-family="Helvetica,sans-Serif" font-size="10.00">3</text>
</g>
<!-- CommunicationComplexity.PrivateCoin.communicationComplexity_le_iff_finiteMessage&#45;&gt;CommunicationComplexity.PrivateCoin.communicationComplexity -->
<g id="edge30" class="edge">
<title>CommunicationComplexity.PrivateCoin.communicationComplexity_le_iff_finiteMessage&#45;&gt;CommunicationComplexity.PrivateCoin.communicationComplexity</title>
<path fill="none" stroke="#8a8a8a" d="M401.51,-114.46C443.69,-121.01 490.31,-129.01 532.75,-138 551.31,-141.93 555.53,-144.66 574,-149 600.6,-155.24 629.47,-161.41 656.38,-166.9"/>
<polygon fill="#8a8a8a" stroke="#8a8a8a" points="655.83,-169.28 663.18,-168.28 656.81,-164.48 655.83,-169.28"/>
<text xml:space="preserve" text-anchor="middle" x="553.38" y="-145.72" font-family="Helvetica,sans-Serif" font-size="10.00">1</text>
</g>
<!-- CommunicationComplexity.PrivateCoin.communicationComplexity_le_of_finiteMessage_protocol -->
<g id="node20" class="node">
<title>CommunicationComplexity.PrivateCoin.communicationComplexity_le_of_finiteMessage_protocol</title>
<path fill="#fff9f0" stroke="#aa7a39" d="M520.75,-36C520.75,-36 12,-36 12,-36 6,-36 0,-30 0,-24 0,-24 0,-12 0,-12 0,-6 6,0 12,0 12,0 520.75,0 520.75,0 526.75,0 532.75,-6 532.75,-12 532.75,-12 532.75,-24 532.75,-24 532.75,-30 526.75,-36 520.75,-36"/>
<text xml:space="preserve" text-anchor="middle" x="266.38" y="-12.97" font-family="Helvetica,sans-Serif" font-size="12.00">CommunicationComplexity.PrivateCoin.communicationComplexity_le_of_finiteMessage_protocol</text>
</g>
<!-- CommunicationComplexity.PrivateCoin.communicationComplexity_le_of_finiteMessage_protocol&#45;&gt;CommunicationComplexity.PrivateCoin.FiniteMessage -->
<g id="edge31" class="edge">
<title>CommunicationComplexity.PrivateCoin.communicationComplexity_le_of_finiteMessage_protocol&#45;&gt;CommunicationComplexity.PrivateCoin.FiniteMessage</title>
<path fill="none" stroke="#8a8a8a" d="M533.21,-5.26C540.89,-5.65 548.5,-6.15 556,-6.75 589.71,-9.47 626.24,-14.66 659,-20.14"/>
<polygon fill="#8a8a8a" stroke="#8a8a8a" points="658.44,-22.53 665.75,-21.29 659.26,-17.7 658.44,-22.53"/>
<text xml:space="preserve" text-anchor="middle" x="553.38" y="-8.5" font-family="Helvetica,sans-Serif" font-size="10.00">3</text>
</g>
<!-- CommunicationComplexity.PrivateCoin.communicationComplexity_le_of_finiteMessage_protocol&#45;&gt;CommunicationComplexity.PrivateCoin.communicationComplexity -->
<g id="edge32" class="edge">
<title>CommunicationComplexity.PrivateCoin.communicationComplexity_le_of_finiteMessage_protocol&#45;&gt;CommunicationComplexity.PrivateCoin.communicationComplexity</title>
<path fill="none" stroke="#8a8a8a" d="M469.17,-36.39C491.97,-44.23 513.78,-54.81 532.75,-69 564.78,-92.96 542.1,-124.87 574,-149 582.34,-155.31 591.46,-160.64 601.06,-165.14"/>
<polygon fill="#8a8a8a" stroke="#8a8a8a" points="600.06,-167.38 607.46,-167.96 602.04,-162.89 600.06,-167.38"/>
<text xml:space="preserve" text-anchor="middle" x="553.38" y="-122.4" font-family="Helvetica,sans-Serif" font-size="10.00">1</text>
</g>
<!-- CommunicationComplexity.PrivateCoin.communicationComplexity_le_of_protocol -->
<g id="node21" class="node">
<title>CommunicationComplexity.PrivateCoin.communicationComplexity_le_of_protocol</title>
<path fill="#fff9f0" stroke="#aa7a39" d="M480.25,-239C480.25,-239 52.5,-239 52.5,-239 46.5,-239 40.5,-233 40.5,-227 40.5,-227 40.5,-215 40.5,-215 40.5,-209 46.5,-203 52.5,-203 52.5,-203 480.25,-203 480.25,-203 486.25,-203 492.25,-209 492.25,-215 492.25,-215 492.25,-227 492.25,-227 492.25,-233 486.25,-239 480.25,-239"/>
<text xml:space="preserve" text-anchor="middle" x="266.38" y="-215.97" font-family="Helvetica,sans-Serif" font-size="12.00">CommunicationComplexity.PrivateCoin.communicationComplexity_le_of_protocol</text>
</g>
<!-- CommunicationComplexity.PrivateCoin.communicationComplexity_le_of_protocol&#45;&gt;CommunicationComplexity.PrivateCoin.Protocol -->
<g id="edge33" class="edge">
<title>CommunicationComplexity.PrivateCoin.communicationComplexity_le_of_protocol&#45;&gt;CommunicationComplexity.PrivateCoin.Protocol</title>
<path fill="none" stroke="#8a8a8a" d="M441.42,-239.5C477.52,-242.62 515.34,-245.38 550.75,-247 728.61,-255.14 773.11,-234.29 950,-214 968.78,-211.85 988.58,-209.28 1007.98,-206.59"/>
<polygon fill="#8a8a8a" stroke="#8a8a8a" points="1008.17,-209.04 1014.76,-205.64 1007.49,-204.19 1008.17,-209.04"/>
<text xml:space="preserve" text-anchor="middle" x="762" y="-250.56" font-family="Helvetica,sans-Serif" font-size="10.00">3</text>
</g>
<!-- CommunicationComplexity.PrivateCoin.communicationComplexity_le_of_protocol&#45;&gt;CommunicationComplexity.PrivateCoin.communicationComplexity -->
<g id="edge34" class="edge">
<title>CommunicationComplexity.PrivateCoin.communicationComplexity_le_of_protocol&#45;&gt;CommunicationComplexity.PrivateCoin.communicationComplexity</title>
<path fill="none" stroke="#8a8a8a" d="M492.52,-205.49C517.99,-203.74 543.77,-201.96 568.77,-200.24"/>
<polygon fill="#8a8a8a" stroke="#8a8a8a" points="568.89,-202.69 575.71,-199.76 568.55,-197.8 568.89,-202.69"/>
<text xml:space="preserve" text-anchor="middle" x="553.38" y="-203.21" font-family="Helvetica,sans-Serif" font-size="10.00">1</text>
</g>
<!-- CommunicationComplexity.PrivateCoin.le_communicationComplexity_iff -->
<g id="node22" class="node">
<title>CommunicationComplexity.PrivateCoin.le_communicationComplexity_iff</title>
<path fill="#fff9f0" stroke="#aa7a39" d="M455.12,-298C455.12,-298 77.62,-298 77.62,-298 71.62,-298 65.62,-292 65.62,-286 65.62,-286 65.62,-274 65.62,-274 65.62,-268 71.62,-262 77.62,-262 77.62,-262 455.12,-262 455.12,-262 461.12,-262 467.12,-268 467.12,-274 467.12,-274 467.12,-286 467.12,-286 467.12,-292 461.12,-298 455.12,-298"/>
<text xml:space="preserve" text-anchor="middle" x="266.38" y="-274.98" font-family="Helvetica,sans-Serif" font-size="12.00">CommunicationComplexity.PrivateCoin.le_communicationComplexity_iff</text>
</g>
<!-- CommunicationComplexity.PrivateCoin.le_communicationComplexity_iff&#45;&gt;CommunicationComplexity.PrivateCoin.Protocol -->
<g id="edge35" class="edge">
<title>CommunicationComplexity.PrivateCoin.le_communicationComplexity_iff&#45;&gt;CommunicationComplexity.PrivateCoin.Protocol</title>
<path fill="none" stroke="#8a8a8a" d="M467.51,-294.58C604.78,-299.9 790.25,-297.85 950,-264 1001.82,-253.02 1057.45,-227.89 1094.05,-209.3"/>
<polygon fill="#8a8a8a" stroke="#8a8a8a" points="1095.1,-211.51 1100.21,-206.14 1092.86,-207.16 1095.1,-211.51"/>
<text xml:space="preserve" text-anchor="middle" x="762" y="-298.56" font-family="Helvetica,sans-Serif" font-size="10.00">3</text>
</g>
<!-- CommunicationComplexity.PrivateCoin.le_communicationComplexity_iff&#45;&gt;CommunicationComplexity.PrivateCoin.communicationComplexity -->
<g id="edge36" class="edge">
<title>CommunicationComplexity.PrivateCoin.le_communicationComplexity_iff&#45;&gt;CommunicationComplexity.PrivateCoin.communicationComplexity</title>
<path fill="none" stroke="#8a8a8a" d="M467.37,-264.39C489.7,-260.15 511.9,-254.78 532.75,-248 552.71,-241.51 554.32,-232.29 574,-225 593.06,-217.94 613.73,-212.09 634.14,-207.26"/>
<polygon fill="#8a8a8a" stroke="#8a8a8a" points="634.5,-209.69 640.77,-205.73 633.4,-204.92 634.5,-209.69"/>
<text xml:space="preserve" text-anchor="middle" x="553.38" y="-240.47" font-family="Helvetica,sans-Serif" font-size="10.00">1</text>
</g>
<!-- CommunicationComplexity.Rectangle.IsMonoPartition&#45;&gt;CommunicationComplexity.Rectangle.IsMonochromatic -->
<g id="edge37" class="edge">
<title>CommunicationComplexity.Rectangle.IsMonoPartition&#45;&gt;CommunicationComplexity.Rectangle.IsMonochromatic</title>
<path fill="none" stroke="#8a8a8a" d="M1574.45,-505.47C1615.04,-512.62 1661.59,-520.82 1702.91,-528.1"/>
<polygon fill="#8a8a8a" stroke="#8a8a8a" points="1702.3,-530.48 1709.62,-529.28 1703.15,-525.65 1702.3,-530.48"/>
<text xml:space="preserve" text-anchor="middle" x="1640.88" y="-519.25" font-family="Helvetica,sans-Serif" font-size="10.00">1</text>
</g>
<!-- CommunicationComplexity.Rectangle.IsMonoPartition&#45;&gt;CommunicationComplexity.Rectangle.IsRectangle -->
<g id="edge38" class="edge">
<title>CommunicationComplexity.Rectangle.IsMonoPartition&#45;&gt;CommunicationComplexity.Rectangle.IsRectangle</title>
<path fill="none" stroke="#8a8a8a" d="M1562.41,-468.51C1609.47,-459.13 1666.7,-447.73 1714.87,-438.13"/>
<polygon fill="#8a8a8a" stroke="#8a8a8a" points="1715.26,-440.55 1721.65,-436.78 1714.3,-435.74 1715.26,-440.55"/>
<text xml:space="preserve" text-anchor="middle" x="1640.88" y="-454.25" font-family="Helvetica,sans-Serif" font-size="10.00">1</text>
</g>
<!-- CommunicationComplexity.Rectangle.IsRectangle_iff -->
<g id="node26" class="node">
<title>CommunicationComplexity.Rectangle.IsRectangle_iff</title>
<path fill="#fff9f0" stroke="#aa7a39" d="M1606.38,-325C1606.38,-325 1330.88,-325 1330.88,-325 1324.88,-325 1318.88,-319 1318.88,-313 1318.88,-313 1318.88,-301 1318.88,-301 1318.88,-295 1324.88,-289 1330.88,-289 1330.88,-289 1606.38,-289 1606.38,-289 1612.38,-289 1618.38,-295 1618.38,-301 1618.38,-301 1618.38,-313 1618.38,-313 1618.38,-319 1612.38,-325 1606.38,-325"/>
<text xml:space="preserve" text-anchor="middle" x="1468.62" y="-301.98" font-family="Helvetica,sans-Serif" font-size="12.00">CommunicationComplexity.Rectangle.IsRectangle_iff</text>
</g>
<!-- CommunicationComplexity.Rectangle.IsRectangle_iff&#45;&gt;CommunicationComplexity.Rectangle.IsRectangle -->
<g id="edge39" class="edge">
<title>CommunicationComplexity.Rectangle.IsRectangle_iff&#45;&gt;CommunicationComplexity.Rectangle.IsRectangle</title>
<path fill="none" stroke="#8a8a8a" d="M1618.83,-321.17C1627.24,-323.09 1635.51,-325.27 1643.5,-327.75 1694.41,-343.53 1748.04,-374.14 1781.7,-395.31"/>
<polygon fill="#8a8a8a" stroke="#8a8a8a" points="1780.07,-397.17 1787.3,-398.86 1782.7,-393.04 1780.07,-397.17"/>
<text xml:space="preserve" text-anchor="middle" x="1640.88" y="-329.5" font-family="Helvetica,sans-Serif" font-size="10.00">1</text>
</g>
<!-- CommunicationComplexity.TreeLemma.balanced_subtree -->
<g id="node27" class="node">
<title>CommunicationComplexity.TreeLemma.balanced_subtree</title>
<path fill="#fff9f0" stroke="#aa7a39" d="M416.88,-981C416.88,-981 115.88,-981 115.88,-981 109.87,-981 103.88,-975 103.88,-969 103.88,-969 103.88,-957 103.88,-957 103.88,-951 109.88,-945 115.88,-945 115.88,-945 416.88,-945 416.88,-945 422.88,-945 428.88,-951 428.88,-957 428.88,-957 428.88,-969 428.88,-969 428.88,-975 422.88,-981 416.88,-981"/>
<text xml:space="preserve" text-anchor="middle" x="266.38" y="-957.98" font-family="Helvetica,sans-Serif" font-size="12.00">CommunicationComplexity.TreeLemma.balanced_subtree</text>
</g>
<!-- Matrix.rank_add_le -->
<g id="node28" class="node">
<title>Matrix.rank_add_le</title>
<path fill="#fff9f0" stroke="#aa7a39" d="M809,-1035C809,-1035 715,-1035 715,-1035 709,-1035 703,-1029 703,-1023 703,-1023 703,-1011 703,-1011 703,-1005 709,-999 715,-999 715,-999 809,-999 809,-999 815,-999 821,-1005 821,-1011 821,-1011 821,-1023 821,-1023 821,-1029 815,-1035 809,-1035"/>
<text xml:space="preserve" text-anchor="middle" x="762" y="-1011.98" font-family="Helvetica,sans-Serif" font-size="12.00">Matrix.rank_add_le</text>
</g>
<!-- Matrix.rank_sum_le -->
<g id="node29" class="node">
<title>Matrix.rank_sum_le</title>
<path fill="#fff9f0" stroke="#aa7a39" d="M314.5,-1035C314.5,-1035 218.25,-1035 218.25,-1035 212.25,-1035 206.25,-1029 206.25,-1023 206.25,-1023 206.25,-1011 206.25,-1011 206.25,-1005 212.25,-999 218.25,-999 218.25,-999 314.5,-999 314.5,-999 320.5,-999 326.5,-1005 326.5,-1011 326.5,-1011 326.5,-1023 326.5,-1023 326.5,-1029 320.5,-1035 314.5,-1035"/>
<text xml:space="preserve" text-anchor="middle" x="266.38" y="-1011.98" font-family="Helvetica,sans-Serif" font-size="12.00">Matrix.rank_sum_le</text>
</g>
<!-- Matrix.rank_sum_le&#45;&gt;Matrix.rank_add_le -->
<g id="edge40" class="edge">
<title>Matrix.rank_sum_le&#45;&gt;Matrix.rank_add_le</title>
<path fill="none" stroke="#8a8a8a" d="M326.92,-1017C419.61,-1017 597.77,-1017 694.53,-1017"/>
<polygon fill="#8a8a8a" stroke="#8a8a8a" points="694.27,-1019.45 701.27,-1017 694.27,-1014.55 694.27,-1019.45"/>
<text xml:space="preserve" text-anchor="middle" x="553.38" y="-1018.75" font-family="Helvetica,sans-Serif" font-size="10.00">1</text>
</g>
</g>
</svg>
